{
  "title": "Game of Thrones S05E02 HDTV x264-XclusivE",
  "uid": 11811669,
  "size": 388903628,
  "categoryP": "video",
  "categoryS": "tv_shows",
  "magnet": "?xt=urn:btih:a3e292edd597bb80b934c4e81b07d89fad4f6484&amp;dn=Game+of+Thrones+S05E02+HDTV+x264-XclusivE&amp;tr=udp%3A%2F%2Ftracker.openbittorrent.com%3A80&amp;tr=udp%3A%2F%2Fopen.demonii.com%3A1337&amp;tr=udp%3A%2F%2Ftracker.coppersurfer.tk%3A6969&amp;tr=udp%3A%2F%2Fexodus.desync.com%3A6969",
  "seeders": 61,
  "leechers": 1,
  "uploader": "HeroMaster",
  "files": 2,
  "time": 1428838623,
  "description": "::::::::: XclusivE PRESENTS :::::::::\n\n\n:::: Game of Thrones S05E02 HDTV x264 ::::\n\n\n::Information::\n\n\nGeneral\nComplete name: Game.of.Thrones.S05E02.HDTV.x264-Xclusive.mp4\nFormat: MPEG-4\nFormat profile: Base Media\nCodec ID: isom\nFile size: 371 MiB\nDuration: 55mn 38s\nOverall bit rate: 932 Kbps\nWriting application: Lavf53.31.100\nEncoded by: Xclusive-4-iPT\n\nVideo\nID: 1\nFormat: AVC\nFormat/Info: Advanced Video Codec\nFormat profile: &lt;a class=&quot;__cf_email__&quot; href=&quot;/cdn-cgi/l/email-protection&quot; data-cfemail=&quot;7830111f1038344b5649&quot;&gt;[email&amp;#160;protected]&lt;/a&gt;&lt;script cf-hash='f9e31' type=&quot;text/javascript&quot;&gt;\n/* &lt;![CDATA[ */!function(){try{var t=&quot;currentScript&quot;in document?document.currentScript:function(){for(var t=document.getElementsByTagName(&quot;script&quot;),e=t.length;e--;)if(t[e].getAttribute(&quot;cf-hash&quot;))return t[e]}();if(t&amp;&amp;t.previousSibling){var e,r,n,i,c=t.previousSibling,a=c.getAttribute(&quot;data-cfemail&quot;);if(a){for(e=&quot;&quot;,r=parseInt(a.substr(0,2),16),n=2;a.length-n;n+=2)i=parseInt(a.substr(n,2),16)^r,e+=String.fromCharCode(i);e=document.createTextNode(e),c.parentNode.replaceChild(e,c)}}}catch(u){}}();/* ]]&gt; */&lt;/script&gt;\nFormat settings, CABAC: Yes\nFormat settings, ReFrames: 5 frames\nFormat settings, GOP: M=2, N=15\nCodec ID: avc1\nCodec ID/Info: Advanced Video Coding\nDuration: 55mn 38s\nBit rate: 779 Kbps\nWidth: 720 pixels\nHeight: 392 pixels\nDisplay aspect ratio: 1.85:1\nFrame rate mode: Variable\nFrame rate: 23.976 fps\nMinimum frame rate: 23.952 fps\nMaximum frame rate: 24.000 fps\nColor space: YUV\nChroma subsampling: 4:2:0\nBit depth: 8 bits\nScan type: Progressive\nBits/(Pixel*Frame): 0.115\nStream size: 310 MiB (84%)\n\nAudio\nID: 2\nFormat: AAC\nFormat/Info: Advanced Audio Codec\nFormat profile: LC\nCodec ID: 40\nDuration: 55mn 38s\nDuration_LastFrame: -21ms\nBit rate mode: Constant\nBit rate: 147 Kbps\nChannel(s): 2 channels\nChannel positions: Front: L R\nSampling rate: 48.0 KHz\nCompression mode: Lossy\nStream size: 58.5 MiB (16%)\n\n\n::IMDB::\n\n  &lt;a href=&quot;\nhttp://www.imdb.com/title/tt0944947/&quot; rel=&quot;nofollow&quot; target=&quot;_NEW&quot;&gt;\nhttp://www.imdb.com/title/tt0944947/&lt;/a&gt;\n\n\n::Poster::\n\n &lt;a href=&quot;\nhttp://i.imgur.com/UqmDGYZ.png&quot; rel=&quot;nofollow&quot; target=&quot;_NEW&quot;&gt;\nhttp://i.imgur.com/UqmDGYZ.png&lt;/a&gt;\n\n\n::Screenshots::\n\n &lt;a href=&quot;\nhttp://i.imgur.com/oS8dZtW.jpg&quot; rel=&quot;nofollow&quot; target=&quot;_NEW&quot;&gt;\nhttp://i.imgur.com/oS8dZtW.jpg&lt;/a&gt;\n\n\nSEED AND ENJOY!",
  "parsed": {
    "xt": "urn:btih:a3e292edd597bb80b934c4e81b07d89fad4f6484",
    "dn": "Game of Thrones S05E02 HDTV x264-XclusivE",
    "tr": [
      "udp://exodus.desync.com:6969",
      "udp://open.demonii.com:1337",
      "udp://tracker.coppersurfer.tk:6969",
      "udp://tracker.openbittorrent.com:80"
    ],
    "infoHash": "a3e292edd597bb80b934c4e81b07d89fad4f6484",
    "infoHashBuffer": {
      "type": "Buffer",
      "data": [
        163,
        226,
        146,
        237,
        213,
        151,
        187,
        128,
        185,
        52,
        196,
        232,
        27,
        7,
        216,
        159,
        173,
        79,
        100,
        132
      ]
    },
    "name": "Game of Thrones S05E02 HDTV x264-XclusivE",
    "announce": [
      "udp://exodus.desync.com:6969",
      "udp://open.demonii.com:1337",
      "udp://tracker.coppersurfer.tk:6969",
      "udp://tracker.openbittorrent.com:80"
    ],
    "urlList": []
  },
  "previous": 62,
  "peers": 42,
  "last_updated": "2016-12-25T09:54:49.362Z"
}